# xmcd
#
# Track frame offsets: 
#        150
#        14686
#        35929
#        54709
#        66760
#        82069
#        95353
#        109739
#        123359
#        136186
#        152321
#        165284
#        175596
#        187826
#        206947
#
# Disc length: 2938 seconds
#
# Revision: 2
# Processed by: cddbd v1.5.2PL0 Copyright (c) Steve Scherf et al.
# Submitted via: ExactAudioCopy v1.1
#
DISCID=c50b780f
DTITLE=Novelas - A Favorita - Sertaneja
DYEAR=2008
DGENRE=Soundtrack
TTITLE0=Tem que Ser Você - Victor and Leo
TTITLE1=Sinônimos - Chitãozinho and Xororó
TTITLE2=Difícil Não Falar de Amor - Daniel Azulay
TTITLE3=Por Favor, Reza pra Nóis - Leandro and Leonardo
TTITLE4=A Chapa Vai Esquentar - Rud and Robson
TTITLE5=Talvez - César Menotti and Fabiano
TTITLE6=De Tanto Te Querer - Jorge and Mateus
TTITLE7=Se é pra Falar de Amor - Mateus and Cristiano
TTITLE8=Ainda Ontem Chorei de Saudade - Edson and Hudson
TTITLE9=Cabecinha no Ombro - Bruno and Marrone
TTITLE10=Vida Louca - Rio Negro and Solimões
TTITLE11=Meu Primeiro Amor - Roberta Miranda
TTITLE12=Saudades de Matão - Chitãozinho and Xororó
TTITLE13=Andorinha - Victor and Renan
TTITLE14=Mala Pronta - Ao Vivo - Hugo Pena and Gabriel
EXTD=
EXTT0=
EXTT1=
EXTT2=
EXTT3=
EXTT4=
EXTT5=
EXTT6=
EXTT7=
EXTT8=
EXTT9=
EXTT10=
EXTT11=
EXTT12=
EXTT13=
EXTT14=
PLAYORDER=
